<mxfile host="65bd71144e">
    <diagram id="Bwmh7gueZTQTiotlZb5I" name="Page-1">
        <mxGraphModel dx="1028" dy="1152" grid="1" gridSize="10" guides="1" tooltips="1" connect="1" arrows="1" fold="1" page="1" pageScale="1" pageWidth="850" pageHeight="1100" math="0" shadow="0">
            <root>
                <mxCell id="0"/>
                <mxCell id="1" parent="0"/>
                <mxCell id="14" value="" style="rounded=0;whiteSpace=wrap;html=1;glass=0;sketch=0;fillStyle=auto;strokeColor=#007FFF;strokeWidth=1;fontColor=#000000;fillColor=#FFFFFF;gradientColor=none;" vertex="1" parent="1">
                    <mxGeometry x="40" y="40" width="720" height="430" as="geometry"/>
                </mxCell>
                <mxCell id="2" value="Framework Studio" style="swimlane;whiteSpace=wrap;html=1;fillColor=#007FFF;strokeColor=#333333;gradientColor=none;rounded=0;glass=0;perimeterSpacing=0;strokeWidth=1;fillStyle=auto;fontSize=16;spacing=2;spacingBottom=0;fontColor=#FFFFFF;" vertex="1" parent="1">
                    <mxGeometry x="40" y="40" width="720" height="430" as="geometry"/>
                </mxCell>
                <mxCell id="4" value="Webserver" style="rounded=0;whiteSpace=wrap;html=1;fillColor=#fad7ac;strokeColor=#b46504;fontColor=#000000;fontStyle=1;fontSize=16;" vertex="1" parent="2">
                    <mxGeometry x="550" y="40" width="150" height="370" as="geometry"/>
                </mxCell>
                <mxCell id="7" value="C# Code Editor" style="swimlane;whiteSpace=wrap;html=1;fillColor=#b1ddf0;strokeColor=#333333;fontColor=#000000;fontSize=14;" vertex="1" parent="2">
                    <mxGeometry x="20" y="40" width="480" height="370" as="geometry"/>
                </mxCell>
                <mxCell id="8" value="Browser Control" style="swimlane;whiteSpace=wrap;html=1;fillColor=#b1ddf0;strokeColor=#333333;fontColor=#000000;fontSize=14;" vertex="1" parent="7">
                    <mxGeometry x="20" y="40" width="440" height="310" as="geometry"/>
                </mxCell>
                <mxCell id="9" value="Angular App" style="swimlane;whiteSpace=wrap;html=1;fillColor=#b1ddf0;strokeColor=#333333;fontColor=#000000;fontSize=14;" vertex="1" parent="8">
                    <mxGeometry x="20" y="40" width="400" height="250" as="geometry"/>
                </mxCell>
                <mxCell id="10" value="Monaco" style="swimlane;whiteSpace=wrap;html=1;fillColor=#b1ddf0;strokeColor=#333333;fontColor=#000000;fontSize=14;" vertex="1" parent="9">
                    <mxGeometry x="20" y="40" width="360" height="190" as="geometry"/>
                </mxCell>
                <mxCell id="11" value="public void Method() { }" style="text;html=1;align=center;verticalAlign=middle;resizable=0;points=[];autosize=1;strokeColor=none;fillColor=none;fontColor=#000000;" vertex="1" parent="10">
                    <mxGeometry x="105" y="90" width="150" height="30" as="geometry"/>
                </mxCell>
                <mxCell id="13" style="edgeStyle=orthogonalEdgeStyle;html=1;exitX=1;exitY=0.5;exitDx=0;exitDy=0;entryX=0;entryY=0.5;entryDx=0;entryDy=0;fontColor=#000000;strokeColor=#000000;strokeWidth=3;" edge="1" parent="2" source="8" target="4">
                    <mxGeometry relative="1" as="geometry"/>
                </mxCell>
            </root>
        </mxGraphModel>
    </diagram>
</mxfile>